<svg width="884" height="156" viewBox="0 0 884 156" fill="none" xmlns="http://www.w3.org/2000/svg">
<g filter="url(#filter0_d_24_706)">
<rect x="451.012" y="34" width="40.988" height="81" fill="#600757"/>
</g>
<circle cx="471.506" cy="53.5182" r="7.80723" fill="#FAF8ED"/>
<circle cx="471.506" cy="95.482" r="7.80723" fill="#FAF8ED"/>
<ellipse cx="471.506" cy="74.5" rx="7.80723" ry="8.29518" fill="#FAF8ED"/>
<g filter="url(#filter1_d_24_706)">
<path d="M6.4 88.6H25.6C26.7733 92.2267 29.1733 95.2133 32.8 97.56C36.5333 99.8 41.3867 100.92 47.36 100.92C51.4133 100.92 54.56 100.547 56.8 99.8C59.04 99.0533 60.5867 97.9867 61.44 96.6C62.2933 95.1067 62.72 93.4533 62.72 91.64C62.72 89.4 62.0267 87.6933 60.64 86.52C59.2533 85.24 57.12 84.2267 54.24 83.48C51.36 82.7333 47.68 82.04 43.2 81.4C38.72 80.6533 34.4 79.7467 30.24 78.68C26.08 77.6133 22.4 76.2267 19.2 74.52C16 72.7067 13.44 70.4667 11.52 67.8C9.70667 65.0267 8.8 61.6667 8.8 57.72C8.8 53.88 9.70667 50.4667 11.52 47.48C13.44 44.4933 16.0533 41.9867 19.36 39.96C22.7733 37.9333 26.72 36.3867 31.2 35.32C35.7867 34.2533 40.6933 33.72 45.92 33.72C53.8133 33.72 60.3733 34.8933 65.6 37.24C70.8267 39.48 74.72 42.68 77.28 46.84C79.9467 50.8933 81.28 55.5867 81.28 60.92H62.88C62.0267 56.9733 60.32 54.1467 57.76 52.44C55.2 50.6267 51.2533 49.72 45.92 49.72C40.6933 49.72 36.7467 50.52 34.08 52.12C31.4133 53.72 30.08 55.9067 30.08 58.68C30.08 60.92 30.88 62.68 32.48 63.96C34.1867 65.1333 36.64 66.0933 39.84 66.84C43.1467 67.5867 47.2533 68.3867 52.16 69.24C56.32 70.0933 60.2667 71.0533 64 72.12C67.84 73.1867 71.2533 74.5733 74.24 76.28C77.2267 77.88 79.5733 80.0667 81.28 82.84C83.0933 85.5067 84 88.92 84 93.08C84 98.2 82.5067 102.52 79.52 106.04C76.64 109.56 72.48 112.28 67.04 114.2C61.6 116.013 55.0933 116.92 47.52 116.92C40.8 116.92 34.9867 116.227 30.08 114.84C25.28 113.347 21.28 111.48 18.08 109.24C14.88 106.893 12.3733 104.44 10.56 101.88C8.85333 99.2133 7.68 96.7067 7.04 94.36C6.4 92.0133 6.18667 90.0933 6.4 88.6ZM172.552 115V71.32C172.552 66.9467 171.806 63.32 170.312 60.44C168.819 57.56 166.419 55.3733 163.113 53.88C159.913 52.3867 155.593 51.64 150.153 51.64C144.926 51.64 140.179 52.6533 135.913 54.68C131.646 56.6 128.179 59.16 125.513 62.36C122.846 65.4533 121.353 68.76 121.033 72.28L120.873 63.48C121.406 59.96 122.633 56.44 124.553 52.92C126.473 49.4 129.033 46.2 132.233 43.32C135.433 40.44 139.273 38.1467 143.753 36.44C148.339 34.6267 153.459 33.72 159.113 33.72C164.019 33.72 168.553 34.36 172.713 35.64C176.873 36.8133 180.499 38.68 183.593 41.24C186.686 43.8 189.086 47 190.793 50.84C192.499 54.5733 193.353 59 193.353 64.12V115H172.552ZM101.353 115V3.48H122.153V115H101.353ZM259.136 116.92C249.11 116.92 240.256 115.32 232.576 112.12C225.003 108.92 219.083 104.28 214.816 98.2C210.55 92.0133 208.416 84.44 208.416 75.48C208.416 66.52 210.55 58.9467 214.816 52.76C219.083 46.4667 225.003 41.72 232.576 38.52C240.256 35.32 249.11 33.72 259.136 33.72C269.163 33.72 277.91 35.32 285.376 38.52C292.95 41.72 298.87 46.4667 303.136 52.76C307.403 58.9467 309.536 66.52 309.536 75.48C309.536 84.44 307.403 92.0133 303.136 98.2C298.87 104.28 292.95 108.92 285.376 112.12C277.91 115.32 269.163 116.92 259.136 116.92ZM259.136 100.92C264.683 100.92 269.643 99.96 274.016 98.04C278.496 96.0133 282.016 93.1333 284.576 89.4C287.136 85.56 288.416 80.92 288.416 75.48C288.416 70.04 287.136 65.4 284.576 61.56C282.016 57.6133 278.55 54.6267 274.176 52.6C269.803 50.5733 264.79 49.56 259.136 49.56C253.59 49.56 248.576 50.5733 244.096 52.6C239.616 54.6267 236.043 57.56 233.376 61.4C230.816 65.24 229.536 69.9333 229.536 75.48C229.536 80.92 230.816 85.56 233.376 89.4C235.936 93.1333 239.456 96.0133 243.936 98.04C248.416 99.96 253.483 100.92 259.136 100.92ZM382.833 116.92C375.793 116.92 369.766 115.693 364.753 113.24C359.846 110.68 355.846 107.373 352.753 103.32C349.659 99.16 347.366 94.6267 345.873 89.72C344.379 84.8133 343.633 80.0133 343.633 75.32C343.633 69.4533 344.326 64.0133 345.713 59C347.206 53.9867 349.499 49.6133 352.593 45.88C355.686 42.04 359.686 39.0533 364.593 36.92C369.606 34.7867 375.686 33.72 382.833 33.72C390.833 33.72 398.033 35.48 404.433 39C410.833 42.52 415.899 47.4267 419.633 53.72C423.473 59.9067 425.393 67.1067 425.393 75.32C425.393 83.7467 423.473 91.1067 419.633 97.4C415.793 103.587 410.673 108.387 404.273 111.8C397.873 115.213 390.726 116.92 382.833 116.92ZM376.113 100.76C381.766 100.76 386.673 99.6933 390.833 97.56C395.099 95.4267 398.353 92.4933 400.593 88.76C402.939 84.92 404.113 80.44 404.113 75.32C404.113 67.64 401.659 61.4533 396.753 56.76C391.953 52.0667 385.073 49.72 376.113 49.72C370.459 49.72 365.286 50.7333 360.593 52.76C356.006 54.7867 352.379 57.72 349.713 61.56C347.046 65.2933 345.713 69.88 345.713 75.32C345.713 80.44 346.939 84.92 349.393 88.76C351.846 92.4933 355.366 95.4267 359.953 97.56C364.539 99.6933 369.926 100.76 376.113 100.76ZM324.913 35.48H344.753L345.713 56.6V147H324.913V35.48ZM519.481 3.48H540.281V115H519.481V3.48ZM585.159 0.599995V18.84H560.999V0.599995H585.159ZM562.599 35.48H583.399V115H562.599V35.48ZM643.811 102.84C635.171 102.84 627.545 101.56 620.931 99C614.425 96.3333 609.358 92.44 605.731 87.32C602.105 82.2 600.291 76.0133 600.291 68.76C600.291 61.6133 602.051 55.4267 605.571 50.2C609.091 44.9733 614.105 40.92 620.611 38.04C627.225 35.16 634.958 33.72 643.811 33.72C646.265 33.72 648.611 33.88 650.851 34.2C653.198 34.52 655.491 34.9467 657.731 35.48L697.891 35.64V51.32C692.451 51.4267 686.905 50.7867 681.251 49.4C675.705 47.9067 670.798 46.3067 666.531 44.6L666.051 43.48C669.678 45.1867 673.091 47.32 676.291 49.88C679.491 52.3333 682.051 55.2133 683.971 58.52C685.998 61.72 687.011 65.4533 687.011 69.72C687.011 76.6533 685.251 82.6267 681.731 87.64C678.211 92.5467 673.198 96.3333 666.691 99C660.291 101.56 652.665 102.84 643.811 102.84ZM670.531 147.8V143.96C670.531 139.053 668.931 135.64 665.731 133.72C662.638 131.8 658.371 130.84 652.931 130.84H628.131C623.331 130.84 619.278 130.467 615.971 129.72C612.771 128.973 610.211 127.907 608.291 126.52C606.371 125.133 604.985 123.48 604.131 121.56C603.278 119.747 602.851 117.773 602.851 115.64C602.851 111.373 604.238 108.173 607.011 106.04C609.785 103.8 613.518 102.307 618.211 101.56C622.905 100.813 628.078 100.653 633.731 101.08L643.811 102.84C637.091 103.053 632.078 103.64 628.771 104.6C625.571 105.453 623.971 107.213 623.971 109.88C623.971 111.48 624.611 112.76 625.891 113.72C627.171 114.573 628.985 115 631.331 115H657.411C664.558 115 670.638 115.747 675.651 117.24C680.771 118.84 684.665 121.453 687.331 125.08C689.998 128.813 691.331 133.88 691.331 140.28V147.8H670.531ZM643.811 87.8C648.398 87.8 652.398 87.0533 655.811 85.56C659.331 84.0667 662.051 81.9333 663.971 79.16C665.891 76.28 666.851 72.8667 666.851 68.92C666.851 64.8667 665.891 61.4 663.971 58.52C662.051 55.64 659.385 53.4533 655.971 51.96C652.558 50.36 648.505 49.56 643.811 49.56C639.225 49.56 635.171 50.36 631.651 51.96C628.131 53.4533 625.411 55.64 623.491 58.52C621.571 61.4 620.611 64.8667 620.611 68.92C620.611 72.8667 621.571 76.28 623.491 79.16C625.411 81.9333 628.078 84.0667 631.491 85.56C635.011 87.0533 639.118 87.8 643.811 87.8ZM784.115 115V71.32C784.115 66.9467 783.368 63.32 781.875 60.44C780.382 57.56 777.982 55.3733 774.675 53.88C771.475 52.3867 767.155 51.64 761.715 51.64C756.488 51.64 751.742 52.6533 747.475 54.68C743.208 56.6 739.742 59.16 737.075 62.36C734.408 65.4533 732.915 68.76 732.595 72.28L732.435 63.48C732.968 59.96 734.195 56.44 736.115 52.92C738.035 49.4 740.595 46.2 743.795 43.32C746.995 40.44 750.835 38.1467 755.315 36.44C759.902 34.6267 765.022 33.72 770.675 33.72C775.582 33.72 780.115 34.36 784.275 35.64C788.435 36.8133 792.062 38.68 795.155 41.24C798.248 43.8 800.648 47 802.355 50.84C804.062 54.5733 804.915 59 804.915 64.12V115H784.115ZM712.915 115V3.48H733.715V115H712.915ZM818.219 35.48H879.979V51.64H818.219V35.48ZM838.699 13.72H859.499V115H838.699V13.72Z" fill="#600757"/>
</g>
<defs>
<filter id="filter0_d_24_706" x="447.012" y="34" width="48.9879" height="89" filterUnits="userSpaceOnUse" color-interpolation-filters="sRGB">
<feFlood flood-opacity="0" result="BackgroundImageFix"/>
<feColorMatrix in="SourceAlpha" type="matrix" values="0 0 0 0 0 0 0 0 0 0 0 0 0 0 0 0 0 0 127 0" result="hardAlpha"/>
<feOffset dy="4"/>
<feGaussianBlur stdDeviation="2"/>
<feComposite in2="hardAlpha" operator="out"/>
<feColorMatrix type="matrix" values="0 0 0 0 0 0 0 0 0 0 0 0 0 0 0 0 0 0 0.25 0"/>
<feBlend mode="normal" in2="BackgroundImageFix" result="effect1_dropShadow_24_706"/>
<feBlend mode="normal" in="SourceGraphic" in2="effect1_dropShadow_24_706" result="shape"/>
</filter>
<filter id="filter1_d_24_706" x="2.08002" y="0.600098" width="881.899" height="155.2" filterUnits="userSpaceOnUse" color-interpolation-filters="sRGB">
<feFlood flood-opacity="0" result="BackgroundImageFix"/>
<feColorMatrix in="SourceAlpha" type="matrix" values="0 0 0 0 0 0 0 0 0 0 0 0 0 0 0 0 0 0 127 0" result="hardAlpha"/>
<feOffset dy="4"/>
<feGaussianBlur stdDeviation="2"/>
<feComposite in2="hardAlpha" operator="out"/>
<feColorMatrix type="matrix" values="0 0 0 0 0 0 0 0 0 0 0 0 0 0 0 0 0 0 0.25 0"/>
<feBlend mode="normal" in2="BackgroundImageFix" result="effect1_dropShadow_24_706"/>
<feBlend mode="normal" in="SourceGraphic" in2="effect1_dropShadow_24_706" result="shape"/>
</filter>
</defs>
</svg>
